HIERARCHY
ROOT Hips
{
    OFFSET   0.000000   0.000000   0.000000
    CHANNELS 6 Xposition Yposition Zposition Zrotation Xrotation Yrotation
    JOINT Chest
    {
        OFFSET   0.000000   8.007230   0.000000
        CHANNELS 3 Zrotation Xrotation Yrotation
        JOINT Chest2
        {
            OFFSET   0.000000  22.077100   0.000000
            CHANNELS 3 Zrotation Xrotation Yrotation
            JOINT Neck
            {
                OFFSET   0.000000  23.255100   0.000000
                CHANNELS 3 Zrotation Xrotation Yrotation
                JOINT Head
                {
                    OFFSET   0.000000  14.370100   1.956600
                    CHANNELS 3 Zrotation Xrotation Yrotation
                    End Site
                    {
                        OFFSET   0.000000  19.566000   0.000000
                    }
                }
            }
            JOINT LeftCollar
            {
                OFFSET   3.911900  19.017000  -0.467063
                CHANNELS 3 Zrotation Xrotation Yrotation
                JOINT LeftShoulder
                {
                    OFFSET  10.383700   0.000000   0.000000
                    CHANNELS 3 Zrotation Xrotation Yrotation
                    JOINT LeftElbow
                    {
                        OFFSET  26.662100   0.001193   0.000980
                        CHANNELS 3 Zrotation Xrotation Yrotation
                        JOINT LeftWrist
                        {
                            OFFSET  28.869000  -0.000059  -0.000082
                            CHANNELS 3 Zrotation Xrotation Yrotation
                            JOINT LeftFinger0
                            {
                                OFFSET   2.044650  -2.323450   3.252850
                                CHANNELS 3 Zrotation Xrotation Yrotation
                                JOINT LeftFinger01
                                {
                                    OFFSET   3.088130   0.000000   0.000000
                                    CHANNELS 3 Zrotation Xrotation Yrotation
                                    JOINT LeftFinger02
                                    {
                                        OFFSET   2.639460   0.000000   0.000000
                                        CHANNELS 3 Zrotation Xrotation Yrotation
                                        End Site
                                        {
                                            OFFSET   2.582190   0.000000   0.000000
                                        }
                                    }
                                }
                            }
                            JOINT LeftFinger1
                            {
                                OFFSET   8.364480   0.000000   3.252850
                                CHANNELS 3 Zrotation Xrotation Yrotation
                                JOINT LeftFinger11
                                {
                                    OFFSET   4.646930   0.000000   0.000000
                                    CHANNELS 3 Zrotation Xrotation Yrotation
                                    JOINT LeftFinger12
                                    {
                                        OFFSET   2.323470   0.000000   0.000000
                                        CHANNELS 3 Zrotation Xrotation Yrotation
                                        End Site
                                        {
                                            OFFSET   2.273050   0.000000   0.000000
                                        }
                                    }
                                }
                            }
                            JOINT LeftFinger2
                            {
                                OFFSET   8.364490   0.000016   1.078090
                                CHANNELS 3 Zrotation Xrotation Yrotation
                                JOINT LeftFinger21
                                {
                                    OFFSET   5.111610   0.000000   0.000000
                                    CHANNELS 3 Zrotation Xrotation Yrotation
                                    JOINT LeftFinger22
                                    {
                                        OFFSET   2.788150   0.000016   0.000000
                                        CHANNELS 3 Zrotation Xrotation Yrotation
                                        End Site
                                        {
                                            OFFSET   2.727660   0.000000   0.000000
                                        }
                                    }
                                }
                            }
                            JOINT LeftFinger3
                            {
                                OFFSET   7.899780   0.000015  -1.078090
                                CHANNELS 3 Zrotation Xrotation Yrotation
                                JOINT LeftFinger31
                                {
                                    OFFSET   4.646930   0.000000   0.000000
                                    CHANNELS 3 Zrotation Xrotation Yrotation
                                    JOINT LeftFinger32
                                    {
                                        OFFSET   2.323470   0.000000   0.000000
                                        CHANNELS 3 Zrotation Xrotation Yrotation
                                        End Site
                                        {
                                            OFFSET   2.273050   0.000000   0.000000
                                        }
                                    }
                                }
                            }
                            JOINT LeftFinger4
                            {
                                OFFSET   7.435090   0.000000  -3.252850
                                CHANNELS 3 Zrotation Xrotation Yrotation
                                JOINT LeftFinger41
                                {
                                    OFFSET   3.717550   0.000000   0.000000
                                    CHANNELS 3 Zrotation Xrotation Yrotation
                                    JOINT LeftFinger42
                                    {
                                        OFFSET   1.858770   0.000000   0.000000
                                        CHANNELS 3 Zrotation Xrotation Yrotation
                                        End Site
                                        {
                                            OFFSET   1.818440   0.000000   0.000000
                                        }
                                    }
                                }
                            }
                        }
                    }
                }
            }
            JOINT RightCollar
            {
                OFFSET  -3.911910  19.017000  -0.467062
                CHANNELS 3 Zrotation Xrotation Yrotation
                JOINT RightShoulder
                {
                    OFFSET -10.383700   0.000014   0.000000
                    CHANNELS 3 Zrotation Xrotation Yrotation
                    JOINT RightElbow
                    {
                        OFFSET -26.662100   0.001225   0.001091
                        CHANNELS 3 Zrotation Xrotation Yrotation
                        JOINT RightWrist
                        {
                            OFFSET -28.869000  -0.000020  -0.000085
                            CHANNELS 3 Zrotation Xrotation Yrotation
                            JOINT RightFinger0
                            {
                                OFFSET  -2.044650  -2.323490   3.252850
                                CHANNELS 3 Zrotation Xrotation Yrotation
                                JOINT RightFinger01
                                {
                                    OFFSET  -3.088130   0.000000   0.000000
                                    CHANNELS 3 Zrotation Xrotation Yrotation
                                    JOINT RightFinger02
                                    {
                                        OFFSET  -2.639460   0.000000   0.000000
                                        CHANNELS 3 Zrotation Xrotation Yrotation
                                        End Site
                                        {
                                            OFFSET  -2.582190   0.000000   0.000000
                                        }
                                    }
                                }
                            }
                            JOINT RightFinger1
                            {
                                OFFSET  -8.364480   0.000000   3.252850
                                CHANNELS 3 Zrotation Xrotation Yrotation
                                JOINT RightFinger11
                                {
                                    OFFSET  -4.646930   0.000000   0.000000
                                    CHANNELS 3 Zrotation Xrotation Yrotation
                                    JOINT RightFinger12
                                    {
                                        OFFSET  -2.323470   0.000000   0.000000
                                        CHANNELS 3 Zrotation Xrotation Yrotation
                                        End Site
                                        {
                                            OFFSET  -2.273050   0.000000   0.000000
                                        }
                                    }
                                }
                            }
                            JOINT RightFinger2
                            {
                                OFFSET  -8.364480   0.000000   1.078090
                                CHANNELS 3 Zrotation Xrotation Yrotation
                                JOINT RightFinger21
                                {
                                    OFFSET  -5.111620   0.000000   0.000000
                                    CHANNELS 3 Zrotation Xrotation Yrotation
                                    JOINT RightFinger22
                                    {
                                        OFFSET  -2.788160   0.000000   0.000000
                                        CHANNELS 3 Zrotation Xrotation Yrotation
                                        End Site
                                        {
                                            OFFSET  -2.727660   0.000000   0.000000
                                        }
                                    }
                                }
                            }
                            JOINT RightFinger3
                            {
                                OFFSET  -7.899780   0.000000  -1.078090
                                CHANNELS 3 Zrotation Xrotation Yrotation
                                JOINT RightFinger31
                                {
                                    OFFSET  -4.646930   0.000000   0.000000
                                    CHANNELS 3 Zrotation Xrotation Yrotation
                                    JOINT RightFinger32
                                    {
                                        OFFSET  -2.323470   0.000000   0.000000
                                        CHANNELS 3 Zrotation Xrotation Yrotation
                                        End Site
                                        {
                                            OFFSET  -2.273050   0.000000   0.000000
                                        }
                                    }
                                }
                            }
                            JOINT RightFinger4
                            {
                                OFFSET  -7.435090   0.000000  -3.252850
                                CHANNELS 3 Zrotation Xrotation Yrotation
                                JOINT RightFinger41
                                {
                                    OFFSET  -3.717550   0.000000   0.000000
                                    CHANNELS 3 Zrotation Xrotation Yrotation
                                    JOINT RightFinger42
                                    {
                                        OFFSET  -1.858760   0.000000   0.000000
                                        CHANNELS 3 Zrotation Xrotation Yrotation
                                        End Site
                                        {
                                            OFFSET  -1.818440   0.000000   0.000000
                                        }
                                    }
                                }
                            }
                        }
                    }
                }
            }
        }
    }
    JOINT LeftHip
    {
        OFFSET   9.783030   0.000000   0.000000
        CHANNELS 3 Zrotation Xrotation Yrotation
        JOINT LeftKnee
        {
            OFFSET   0.000063 -41.789100   0.000608
            CHANNELS 3 Zrotation Xrotation Yrotation
            JOINT LeftAnkle
            {
                OFFSET   0.000048 -41.133200  -0.000184
                CHANNELS 3 Zrotation Xrotation Yrotation
                JOINT LeftToe
                {
                    OFFSET   0.000000  -6.358960  14.674500
                    CHANNELS 3 Zrotation Xrotation Yrotation
                    End Site
                    {
                        OFFSET   0.000000   0.000000   3.913200
                    }
                }
            }
        }
    }
    JOINT RightHip
    {
        OFFSET  -9.783030   0.000000   0.000000
        CHANNELS 3 Zrotation Xrotation Yrotation
        JOINT RightKnee
        {
            OFFSET   0.000071 -41.789100   0.001239
            CHANNELS 3 Zrotation Xrotation Yrotation
            JOINT RightAnkle
            {
                OFFSET   0.000037 -41.133200  -0.000166
                CHANNELS 3 Zrotation Xrotation Yrotation
                JOINT RightToe
                {
                    OFFSET   0.000000  -6.358960  14.674500
                    CHANNELS 3 Zrotation Xrotation Yrotation
                    End Site
                    {
                        OFFSET   0.000000   0.000000   3.913200
                    }
                }
            }
        }
    }
}
MOTION
Frames: 4
Frame Time:   0.016667
  2.028650  89.387400   1.411030   3.174870 -19.265400  17.404300   1.193090   9.819160   1.475170   2.173580  19.664300   2.801640   2.850680   2.580190  -0.126571   4.709430   5.193440   3.309770  -0.691690  -1.548240  -0.425333 -49.391000   5.017040 -62.244500  34.158300  -9.471550 -74.435500  -2.941230  43.020900   9.628170  46.564600  46.486200 -92.183800   0.842650   0.007286   0.003633   5.421320   0.003830   0.004991  20.013200  -4.025240 -10.855600  -0.000030  -0.003580  -0.003986   0.000000   0.007890  -0.002975  11.049900   0.179460   0.936898  -0.000298   0.003918   0.006583  -0.000000   0.005791   0.002919   5.710560   1.461510  14.364200  -0.000000   0.002635   0.001108   0.006681   0.001765  -0.001308  -6.270410  -4.426410  35.160700 -11.519000  -0.005583   0.000859  -7.671650  -0.005832  -0.005257   5.967600  -1.043370   4.593130  73.128200  15.372900  -0.744799   2.106650 -12.893000  14.077000 -16.250700  -0.959888   0.009722 -34.814500  25.283700  62.151500  31.092200   0.004770  -0.002811  10.546200   0.000029   0.005976  29.292500   5.399080   9.518730  24.333300   0.002989  -0.000227  17.033300   0.001673   0.000483  27.992900   3.795280   7.099550  33.620800  -0.001294  -0.002532  22.391500  -0.004211  -0.000299  27.088500   2.422430   4.726480  27.776900   0.002573   0.000073  18.499400   0.002912  -0.000812  33.699300   0.531116   0.796338  50.554400  -0.003242  -0.002387  33.669200  -0.006003  -0.002976   1.424770  20.526100   1.413020   0.836408   0.130885  -3.619830  -3.067140  -1.111290  -5.417410  -0.000000   0.000000   0.000000   4.128900  23.330100 -10.808000  -0.080704   3.394250 -18.861300   0.012679  -8.054280  -4.821560  -0.000000   0.000000  -0.000000
  2.033090  89.390400   1.435360   3.110950 -19.218900  17.302500   1.194270   9.775640   1.475720   2.177040  19.577500   2.803630   2.877370   2.561790  -0.126029   4.753190   5.155590   3.211740  -0.718759  -1.499740  -0.430897 -49.373700   5.011420 -62.266800  34.253600  -9.421520 -74.367300  -2.619760  43.133100   9.292100  46.313100  46.262200 -91.835100   0.090880   0.012922   0.004257   5.045450   0.004781   0.005191  20.464600  -4.189140 -11.060700  -0.000000  -0.003682  -0.004067   0.000000   0.007771  -0.003013  11.035900   0.134999   0.706914  -0.000352   0.004159   0.006884  -0.000000   0.005549   0.003046   6.030510   1.545110  14.388900  -0.000000   0.002654   0.001317   0.006827   0.001783  -0.001116  -6.233530  -4.379740  34.879900 -11.412900  -0.006087   0.000752  -7.601000  -0.006117  -0.005697   5.982460  -1.034140   4.601620  73.131500  15.372100  -0.778606   2.131070 -12.904000  13.986400 -16.249900  -0.730376  -0.005965 -34.809300  25.331400  62.274900  31.123700   0.004767  -0.002820  10.561900   0.000058   0.005974  29.255300   5.435780   9.598640  24.309900   0.003020  -0.000222  17.016900   0.001674   0.000474  27.981600   3.833980   7.173130  33.578200  -0.001293  -0.002525  22.363100  -0.004209  -0.000304  27.072200   2.464690   4.809350  27.725300   0.002404  -0.000088  18.465100   0.003017  -0.000802  33.672000   0.537059   0.805977  50.513600  -0.003241  -0.002345  33.642100  -0.006003  -0.003005   1.436370  20.488300   1.413340   0.825673   0.151131  -3.574590  -3.032460  -1.175560  -5.366470   0.000000   0.000000   0.000000   4.145190  23.285200 -10.796000  -0.092463   3.378770 -18.822000   0.008814  -8.040890  -4.779710   0.000000   0.000000   0.000000
  2.034220  89.392800   1.459700   3.036920 -19.155200  17.180900   1.193200   9.724950   1.484810   2.174290  19.476300   2.823470   2.900020   2.533560  -0.125439   4.787130   5.098210   3.111940  -0.738016  -1.464970  -0.435097 -49.309700   5.028650 -62.264800  34.312200  -9.408780 -74.271000  -1.984680  43.177400   8.790110  45.904500  45.884200 -91.271600  -1.154350   0.014720   0.004698   4.422840   0.005754   0.005400  20.361600  -4.181990 -11.193800  -0.000000  -0.003775  -0.004151   0.000000   0.007659  -0.003048  10.617500   0.115483   0.650587  -0.044885   0.004421   0.007171  -0.029766   0.005318   0.003194   5.731140   1.448270  14.264700  -0.000066   0.002668   0.001544   0.006868   0.001794  -0.000889  -6.474850  -4.470650  34.282800 -11.769800  -0.006814   0.000637  -7.838690  -0.006277  -0.006139   5.999030  -1.028890   4.604500  73.150400  15.355300  -0.830661   2.156210 -12.850300  13.908900 -16.297100  -0.477048   0.012710 -34.748500  25.236900  62.280400  31.170800   0.004774  -0.002832  10.585500   0.000029   0.005988  29.279500   5.462120   9.634220  24.333000   0.003054  -0.000226  17.033200   0.001676   0.000470  27.987200   3.844600   7.189280  33.628900  -0.001289  -0.002532  22.396800  -0.004213  -0.000297  27.081400   2.482740   4.841880  27.773300   0.002243  -0.000299  18.497100   0.003116  -0.000782  33.712100   0.528344   0.791740  50.573600  -0.003240  -0.002295  33.682100  -0.006002  -0.003027   1.448170  20.457000   1.411140   0.816088   0.127958  -3.524250  -2.997500  -1.224110  -5.306230   0.000000   0.000000   0.000000   4.161380  23.227500 -10.781900  -0.107634   3.348190 -18.770100   0.006251  -8.015030  -4.734690  -0.000000   0.000000   0.000000
  2.034380  89.394800   1.482350   2.949640 -19.078000  17.039200   1.191560   9.667470   1.498440   2.169460  19.361500   2.851700   2.911590   2.500790  -0.124810   4.808570   5.031890   3.016000  -0.756726  -1.432420  -0.436987 -49.242200   5.059890 -62.236000  34.361600  -9.373350 -74.182400  -0.918261  43.231300   8.070330  45.424300  45.424200 -90.599100  -2.829420   0.019248   0.005551   3.585310   0.009517   0.005625  19.693700  -4.142330 -11.396500  -0.000000  -0.003857  -0.004237   0.000000   0.007551  -0.003085   9.549290   0.095081   0.592820  -0.089372   0.004682   0.007461  -0.059532   0.005111   0.003371   4.929940   1.207140  13.907400  -0.000132   0.002673   0.001787   0.006930   0.001797  -0.000651  -6.971620  -4.637110  33.376600 -12.539600  -0.009946   0.000512  -8.351400  -0.006788  -0.006590   6.014260  -1.021510   4.605900  73.170900  15.317100  -0.889757   2.180410 -12.768800  13.841800 -16.344500  -0.226507   0.041981 -34.639600  25.089800  62.221200  31.217800   0.004780  -0.002839  10.608900   0.000000   0.006002  29.311300   5.475870   9.646340  24.360300   0.003090  -0.000233  17.052200   0.001676   0.000468  27.995000   3.846110   7.191590  33.695000  -0.001286  -0.002540  22.440800  -0.004217  -0.000290  27.097800   2.488370   4.850020  27.843200   0.002098  -0.000549  18.543600   0.003215  -0.000757  33.778100   0.513985   0.768323  50.672300  -0.003240  -0.002245  33.747800  -0.006000  -0.003047   1.469320  20.419800   1.408900   0.801239   0.086419  -3.459120  -2.968140  -1.263930  -5.246840   0.000000   0.000000  -0.000000   4.178390  23.153200 -10.770400  -0.124096   3.312570 -18.705100   0.002618  -7.983450  -4.680420  -0.000000   0.000000   0.000000
